<?xml version="1.0" standalone="no"?>
<!DOCTYPE svg PUBLIC "-//W3C//DTD SVG 20010904//EN"
 "http://www.w3.org/TR/2001/REC-SVG-20010904/DTD/svg10.dtd">
<svg version="1.0" xmlns="http://www.w3.org/2000/svg"
 width="332.000000pt" height="137.000000pt" viewBox="0 0 332.000000 137.000000"
 preserveAspectRatio="xMidYMid meet">

<g transform="translate(0.000000,137.000000) scale(0.100000,-0.100000)"
fill="#000000" stroke="none">
<path d="M0 685 l0 -685 1660 0 1660 0 0 685 0 685 -1660 0 -1660 0 0 -685z
m3290 -5 l0 -660 -1630 0 -1630 0 0 660 0 660 1630 0 1630 0 0 -660z"/>
<path d="M90 680 l0 -590 1570 0 1570 0 0 590 0 590 -1570 0 -1570 0 0 -590z
m1040 55 l0 -445 40 0 40 0 0 -45 0 -45 -64 0 c-54 0 -70 4 -93 24 l-28 24 -3
466 -3 466 56 0 55 0 0 -445z m322 128 l3 -318 41 57 c22 31 81 106 130 167
l89 111 63 0 64 0 -57 -67 c-31 -38 -81 -98 -111 -135 l-55 -67 120 -203 120
-203 -51 -3 c-28 -2 -56 -1 -62 1 -7 3 -54 80 -106 171 -51 91 -97 166 -101
166 -4 0 -26 -22 -48 -49 l-41 -49 0 -121 0 -121 -50 0 -50 0 0 490 0 490 50
0 50 0 2 -317z m1476 247 c66 -28 134 -102 161 -173 35 -94 44 -169 38 -314
-8 -229 -58 -335 -190 -402 -61 -31 -76 -35 -150 -35 -138 0 -234 48 -293 150
-56 95 -81 258 -64 421 21 210 95 320 245 370 61 20 188 11 253 -17z m-2178
-430 c75 -239 140 -445 144 -458 7 -22 6 -23 -50 -20 l-58 3 -38 128 c-20 70
-40 132 -43 137 -7 12 -305 13 -320 2 -6 -4 -28 -67 -50 -139 l-38 -133 -55 0
c-47 0 -54 2 -50 18 3 9 67 216 143 460 l139 443 69 -3 70 -3 137 -435z m1540
395 l0 -45 -60 0 -60 0 0 -370 0 -370 60 0 60 0 0 -45 0 -45 -170 0 -170 0 0
45 0 45 55 0 55 0 0 370 0 370 -55 0 -55 0 0 45 0 45 170 0 170 0 0 -45z"/>
<path d="M2675 1022 c-51 -24 -78 -54 -107 -117 -22 -47 -23 -63 -23 -246 l0
-195 30 -59 c37 -73 96 -113 176 -122 109 -11 196 39 239 139 18 42 23 77 27
187 9 225 -20 336 -105 395 -35 25 -53 30 -119 33 -62 3 -86 0 -118 -15z"/>
<path d="M526 987 c-4 -20 -31 -118 -61 -218 -30 -100 -55 -186 -55 -191 0 -4
61 -8 136 -8 116 0 135 2 130 15 -13 36 -116 379 -116 390 0 6 -6 20 -14 30
-12 17 -14 16 -20 -18z"/>
</g>
</svg>
