<svg xmlns="http://www.w3.org/2000/svg" version="1.1" xmlns:xlink="http://www.w3.org/1999/xlink" xmlns:svgjs="http://svgjs.dev/svgjs" width="1500" height="1500" viewBox="0 0 1500 1500"><rect width="1500" height="1500" fill="#ffffff"></rect><g transform="matrix(0.6666666666666666,0,0,0.6666666666666666,249.27058823529427,542.0799574468085)"><svg viewBox="0 0 340 141" data-background-color="#636365" preserveAspectRatio="xMidYMid meet" height="622" width="1500" xmlns="http://www.w3.org/2000/svg" xmlns:xlink="http://www.w3.org/1999/xlink"><g id="tight-bounds" transform="matrix(1,0,0,1,0.24799999999996203,0.19949999999997203)"><svg viewBox="0 0 339.5036278723405 140.60052000000002" height="140.60052000000002" width="339.5036278723405"><g><svg viewBox="0 0 339.5036278723405 140.60052000000002" height="140.60052000000002" width="339.5036278723405"><g><svg viewBox="0 0 339.5036278723405 140.60052000000002" height="140.60052000000002" width="339.5036278723405"><g><path d="M0 140.601v-140.601h339.504v140.601z" fill="#000000" stroke="transparent" stroke-width="0" rx="0%" data-fill-palette-color="tertiary"></path><path d="M3.283 137.317v-134.034h332.937v134.034z" fill="#ffffff" stroke="transparent" stroke-width="0" rx="0%" data-fill-palette-color="quaternary"></path><path d="M9.85 130.751v-120.901h319.804v120.901z" fill="#000000" stroke="transparent" stroke-width="0" data-fill-palette-color="tertiary"></path></g><g transform="matrix(1,0,0,1,19.69974,19.69974)" id="textblocktransform"><svg viewBox="0 0 300.1041478723405 101.20104000000002" height="101.20104000000002" width="300.1041478723405" id="textblock"><g><svg viewBox="0 0 300.1041478723405 101.20104000000002" height="101.20104000000002" width="300.1041478723405"><g transform="matrix(1,0,0,1,0,0)"><svg width="300.1041478723405" viewBox="1.05 -37 111.49000000000001 37.6" height="101.20104000000002" data-palette-color="#636365"><path d="M27.9 0L23.8 0 20.7-10.45 8.15-10.45 5.05 0 1.05 0 11.95-34.9 16.95-34.9 27.9 0ZM19.8-13.75L15.75-27 14.65-31.35 14.15-31.35 13.05-27 9.1-13.75 19.8-13.75ZM39.8 0L36.65 0Q34.6 0 33.67-0.93 32.75-1.85 32.75-3.9L32.75-3.9 32.75-37 36.55-37 36.55-3.35 39.8-3.35 39.8 0ZM45.09 0L45.09-37 48.9-37 48.9-18 48.59-12.95 49-12.95 52.59-17.8 59.05-25.8 63.65-25.8 55.09-15.55 64.4 0 59.84 0 52.3-13.3 48.9-9.3 48.9 0 45.09 0ZM80.59 0L67.79 0 67.79-3.3 72.19-3.3 72.19-31.6 67.79-31.6 67.79-34.9 80.59-34.9 80.59-31.6 76.19-31.6 76.19-3.3 80.59-3.3 80.59 0ZM99.19 0.6L99.19 0.6Q92.84 0.6 89.34-3.75 85.84-8.1 85.84-17.45L85.84-17.45Q85.84-26.8 89.34-31.15 92.84-35.5 99.19-35.5L99.19-35.5Q105.54-35.5 109.04-31.15 112.54-26.8 112.54-17.45L112.54-17.45Q112.54-8.1 109.04-3.75 105.54 0.6 99.19 0.6ZM99.19-2.95L99.19-2.95Q103.54-2.95 105.89-5.83 108.24-8.7 108.24-13.55L108.24-13.55 108.24-21.35Q108.24-26.2 105.89-29.08 103.54-31.95 99.19-31.95L99.19-31.95Q94.84-31.95 92.49-29.08 90.14-26.2 90.14-21.35L90.14-21.35 90.14-13.55Q90.14-8.7 92.49-5.83 94.84-2.95 99.19-2.95Z" opacity="1" transform="matrix(1,0,0,1,0,0)" fill="#ffffff" class="wordmark-text-0" data-fill-palette-color="quaternary" id="text-0"></path></svg></g></svg></g></svg></g></svg></g><g></g></svg></g><defs></defs></svg><rect width="339.5036278723405" height="140.60052000000002" fill="none" stroke="none" visibility="hidden"></rect></g></svg></g></svg>